<svg xmlns="http://www.w3.org/2000/svg" width="24" height="24" viewBox="0 0 24 24">
    <g fill="none" fill-rule="evenodd">
        <path d="M0 1h24v24H0z"/>
        <path fill="#555555" d="M5.551 20.643a10.032 10.032 0 0 1-2.662-3.516l.98-.263a9.03 9.03 0 0 0 2.191 2.898l-.509.881zm1.655 1.135l.5-.867A8.96 8.96 0 0 0 12 22v1a9.955 9.955 0 0 1-4.794-1.222zm-4.957-6.55A10.033 10.033 0 0 1 2 13c0-.782.09-1.543.26-2.273l.91.526a9.045 9.045 0 0 0 .046 3.716l-.967.26zM2.922 8.8A10.021 10.021 0 0 1 4.859 6h1.484a9.03 9.03 0 0 0-2.55 3.303L2.921 8.8zM12 4V3v1z"/>
        <path fill="#555555" d="M11 22.95v-1.005a9 9 0 1 0 0-17.89V4H7.636c1.319-.64 2.8-1 4.364-1 5.523 0 10 4.477 10 10s-4.477 10-10 10c-.337 0-.671-.017-1-.05z"/>
        <path stroke="#555555" stroke-linecap="square" d="M11 1L8.5 3.5 11 6"/>
    </g>
</svg>
